<?xml version="1.0" standalone="no"?>
<!DOCTYPE svg PUBLIC "-//W3C//DTD SVG 20010904//EN"
 "http://www.w3.org/TR/2001/REC-SVG-20010904/DTD/svg10.dtd">
<svg version="1.0" xmlns="http://www.w3.org/2000/svg"
 width="791.000000pt" height="791.000000pt" viewBox="0 0 791.000000 791.000000"
 preserveAspectRatio="xMidYMid meet">
<metadata>
Created by potrace 1.11, written by Peter Selinger 2001-2013
</metadata>
<g transform="translate(0.000000,791.000000) scale(0.100000,-0.100000)"
fill="#000000" stroke="none">
<path d="M1153 7896 c4 -10 7 -1160 7 -2557 l0 -2539 400 0 400 0 2 796 3 795
895 -795 894 -795 101 -3 100 -3 0 -1045 0 -1045 -447 -3 -448 -2 0 -350 0
-350 850 0 850 0 2 1397 3 1398 180 7 c505 18 886 121 1187 319 116 77 295
254 367 364 181 275 273 638 258 1018 -12 298 -93 558 -243 779 -379 556
-1145 793 -2379 734 l-169 -8 -998 -499 c-549 -275 -1000 -499 -1003 -499 -3
0 -4 492 -3 1093 l3 1092 448 3 447 2 0 350 0 350 -839 0 c-462 0 -847 3 -857
7 -14 5 -16 3 -11 -11z m3967 -2530 c472 -79 753 -288 876 -650 67 -197 71
-418 10 -631 -101 -355 -354 -574 -752 -650 -103 -20 -320 -37 -414 -33 l-75
3 -3 994 -2 994 137 -6 c76 -4 176 -13 223 -21z m-1160 -1017 l0 -940 -23 18
c-74 58 -1366 1187 -1363 1190 7 7 1370 672 1379 673 4 0 7 -423 7 -941z"/>
</g>
</svg>
